<svg width="366" height="80" viewBox="0 0 366 80" fill="none" xmlns="http://www.w3.org/2000/svg">
<path d="M84.5547 9.2V79H70.5547V33.6L51.8547 79H41.2547L22.4547 33.6V79H8.45469V9.2H24.3547L46.5547 61.1L68.7547 9.2H84.5547ZM150.696 23.6V79H136.596V72C134.796 74.4 132.429 76.3 129.496 77.7C126.629 79.0333 123.496 79.7 120.096 79.7C115.763 79.7 111.929 78.8 108.596 77C105.263 75.1333 102.629 72.4333 100.696 68.9C98.8294 65.3 97.8961 61.0333 97.8961 56.1V23.6H111.896V54.1C111.896 58.5 112.996 61.9 115.196 64.3C117.396 66.6333 120.396 67.8 124.196 67.8C128.063 67.8 131.096 66.6333 133.296 64.3C135.496 61.9 136.596 58.5 136.596 54.1V23.6H150.696ZM185.709 79.9C181.176 79.9 177.109 79.1 173.509 77.5C169.909 75.8333 167.043 73.6 164.909 70.8C162.843 68 161.709 64.9 161.509 61.5H175.609C175.876 63.6333 176.909 65.4 178.709 66.8C180.576 68.2 182.876 68.9 185.609 68.9C188.276 68.9 190.343 68.3667 191.809 67.3C193.343 66.2333 194.109 64.8667 194.109 63.2C194.109 61.4 193.176 60.0667 191.309 59.2C189.509 58.2667 186.609 57.2667 182.609 56.2C178.476 55.2 175.076 54.1667 172.409 53.1C169.809 52.0333 167.543 50.4 165.609 48.2C163.743 46 162.809 43.0333 162.809 39.3C162.809 36.2333 163.676 33.4333 165.409 30.9C167.209 28.3667 169.743 26.3667 173.009 24.9C176.343 23.4333 180.243 22.7 184.709 22.7C191.309 22.7 196.576 24.3667 200.509 27.7C204.443 30.9667 206.609 35.4 207.009 41H193.609C193.409 38.8 192.476 37.0667 190.809 35.8C189.209 34.4667 187.043 33.8 184.309 33.8C181.776 33.8 179.809 34.2667 178.409 35.2C177.076 36.1333 176.409 37.4333 176.409 39.1C176.409 40.9667 177.343 42.4 179.209 43.4C181.076 44.3333 183.976 45.3 187.909 46.3C191.909 47.3 195.209 48.3333 197.809 49.4C200.409 50.4667 202.643 52.1333 204.509 54.4C206.443 56.6 207.443 59.5333 207.509 63.2C207.509 66.4 206.609 69.2667 204.809 71.8C203.076 74.3333 200.543 76.3333 197.209 77.8C193.943 79.2 190.109 79.9 185.709 79.9ZM226.102 17C223.635 17 221.568 16.2333 219.902 14.7C218.302 13.1 217.502 11.1333 217.502 8.8C217.502 6.46666 218.302 4.53333 219.902 2.99999C221.568 1.4 223.635 0.599996 226.102 0.599996C228.568 0.599996 230.602 1.4 232.202 2.99999C233.868 4.53333 234.702 6.46666 234.702 8.8C234.702 11.1333 233.868 13.1 232.202 14.7C230.602 16.2333 228.568 17 226.102 17ZM233.002 23.6V79H219.002V23.6H233.002ZM279.634 79L260.834 55.4V79H246.834V5H260.834V47.1L279.434 23.6H297.634L273.234 51.4L297.834 79H279.634ZM357.532 23.6V79H343.432V72C341.632 74.4 339.265 76.3 336.332 77.7C333.465 79.0333 330.332 79.7 326.932 79.7C322.599 79.7 318.765 78.8 315.432 77C312.099 75.1333 309.465 72.4333 307.532 68.9C305.665 65.3 304.732 61.0333 304.732 56.1V23.6H318.732V54.1C318.732 58.5 319.832 61.9 322.032 64.3C324.232 66.6333 327.232 67.8 331.032 67.8C334.899 67.8 337.932 66.6333 340.132 64.3C342.332 61.9 343.432 58.5 343.432 54.1V23.6H357.532Z" fill="black"/>
<circle cx="226" cy="9" r="9" fill="#8721B7"/>
<rect x="304" y="5.21476" width="53" height="13.4501" transform="rotate(-0.232169 304 5.21476)" fill="#8721B7"/>
<rect x="97" y="8.21476" width="53" height="13.4501" transform="rotate(-0.232169 97 8.21476)" fill="#8721B7"/>
</svg>
