<svg viewBox="0 0 315 66" fill="none" xmlns="http://www.w3.org/2000/svg">
<path d="M53.2288 26.92C53.2288 30.1733 52.4821 33.16 50.9888 35.88C49.4954 38.5467 47.2021 40.7067 44.1088 42.36C41.0154 44.0133 37.1754 44.84 32.5888 44.84H24.1088V65H10.4288V8.84H32.5888C37.0688 8.84 40.8554 9.61333 43.9488 11.16C47.0421 12.7067 49.3621 14.84 50.9088 17.56C52.4554 20.28 53.2288 23.4 53.2288 26.92ZM31.5488 33.96C34.1621 33.96 36.1088 33.3467 37.3888 32.12C38.6688 30.8933 39.3088 29.16 39.3088 26.92C39.3088 24.68 38.6688 22.9467 37.3888 21.72C36.1088 20.4933 34.1621 19.88 31.5488 19.88H24.1088V33.96H31.5488ZM67.2306 15.72C64.8306 15.72 62.8573 15.0267 61.3106 13.64C59.8173 12.2 59.0706 10.44 59.0706 8.36C59.0706 6.22667 59.8173 4.46666 61.3106 3.08C62.8573 1.64 64.8306 0.919995 67.2306 0.919995C69.5773 0.919995 71.4973 1.64 72.9906 3.08C74.5373 4.46666 75.3106 6.22667 75.3106 8.36C75.3106 10.44 74.5373 12.2 72.9906 13.64C71.4973 15.0267 69.5773 15.72 67.2306 15.72ZM74.0306 20.36V65H60.3506V20.36H74.0306ZM104.264 65.56C100.158 65.56 96.4777 64.8933 93.2244 63.56C89.971 62.2267 87.3577 60.2533 85.3844 57.64C83.4644 55.0267 82.451 51.88 82.3444 48.2H96.9044C97.1177 50.28 97.8377 51.88 99.0644 53C100.291 54.0667 101.891 54.6 103.864 54.6C105.891 54.6 107.491 54.1467 108.664 53.24C109.838 52.28 110.424 50.9733 110.424 49.32C110.424 47.9333 109.944 46.7867 108.984 45.88C108.078 44.9733 106.931 44.2267 105.544 43.64C104.211 43.0533 102.291 42.3867 99.7844 41.64C96.1577 40.52 93.1977 39.4 90.9044 38.28C88.611 37.16 86.6377 35.5067 84.9844 33.32C83.331 31.1333 82.5044 28.28 82.5044 24.76C82.5044 19.5333 84.3977 15.4533 88.1844 12.52C91.971 9.53333 96.9044 8.04 102.984 8.04C109.171 8.04 114.158 9.53333 117.944 12.52C121.731 15.4533 123.758 19.56 124.024 24.84H109.224C109.118 23.0267 108.451 21.6133 107.224 20.6C105.998 19.5333 104.424 19 102.504 19C100.851 19 99.5177 19.4533 98.5044 20.36C97.491 21.2133 96.9844 22.4667 96.9844 24.12C96.9844 25.9333 97.8377 27.3467 99.5444 28.36C101.251 29.3733 103.918 30.4667 107.544 31.64C111.171 32.8667 114.104 34.04 116.344 35.16C118.638 36.28 120.611 37.9067 122.264 40.04C123.918 42.1733 124.744 44.92 124.744 48.28C124.744 51.48 123.918 54.3867 122.264 57C120.664 59.6133 118.318 61.6933 115.224 63.24C112.131 64.7867 108.478 65.56 104.264 65.56ZM158.043 53.4V65H151.083C146.123 65 142.256 63.8 139.483 61.4C136.71 58.9467 135.323 54.9733 135.323 49.48V31.72H129.883V20.36H135.323V9.48H149.003V20.36H157.963V31.72H149.003V49.64C149.003 50.9733 149.323 51.9333 149.963 52.52C150.603 53.1067 151.67 53.4 153.163 53.4H158.043ZM185.983 65.64C181.61 65.64 177.663 64.7067 174.143 62.84C170.676 60.9733 167.93 58.3067 165.903 54.84C163.93 51.3733 162.943 47.32 162.943 42.68C162.943 38.0933 163.956 34.0667 165.983 30.6C168.01 27.08 170.783 24.3867 174.303 22.52C177.823 20.6533 181.77 19.72 186.143 19.72C190.516 19.72 194.463 20.6533 197.983 22.52C201.503 24.3867 204.276 27.08 206.303 30.6C208.33 34.0667 209.343 38.0933 209.343 42.68C209.343 47.2667 208.303 51.32 206.223 54.84C204.196 58.3067 201.396 60.9733 197.823 62.84C194.303 64.7067 190.356 65.64 185.983 65.64ZM185.983 53.8C188.596 53.8 190.81 52.84 192.623 50.92C194.49 49 195.423 46.2533 195.423 42.68C195.423 39.1067 194.516 36.36 192.703 34.44C190.943 32.52 188.756 31.56 186.143 31.56C183.476 31.56 181.263 32.52 179.503 34.44C177.743 36.3067 176.863 39.0533 176.863 42.68C176.863 46.2533 177.716 49 179.423 50.92C181.183 52.84 183.37 53.8 185.983 53.8ZM213.881 42.68C213.881 38.04 214.814 33.9867 216.681 30.52C218.601 27.0533 221.241 24.3867 224.601 22.52C228.014 20.6533 231.907 19.72 236.281 19.72C241.881 19.72 246.547 21.1867 250.281 24.12C254.067 27.0533 256.547 31.1867 257.721 36.52H243.161C241.934 33.1067 239.561 31.4 236.041 31.4C233.534 31.4 231.534 32.3867 230.041 34.36C228.547 36.28 227.801 39.0533 227.801 42.68C227.801 46.3067 228.547 49.1067 230.041 51.08C231.534 53 233.534 53.96 236.041 53.96C239.561 53.96 241.934 52.2533 243.161 48.84H257.721C256.547 54.0667 254.067 58.1733 250.281 61.16C246.494 64.1467 241.827 65.64 236.281 65.64C231.907 65.64 228.014 64.7067 224.601 62.84C221.241 60.9733 218.601 58.3067 216.681 54.84C214.814 51.3733 213.881 47.32 213.881 42.68ZM292.318 65L278.718 46.28V65H265.038V5.8H278.718V38.52L292.238 20.36H309.118L290.558 42.76L309.278 65H292.318Z" fill="white"/>
<ellipse cx="67" cy="8.5" rx="9" ry="8.5" fill="#9323D8"/>
<ellipse cx="186" cy="42.5" rx="10" ry="11.5" fill="#9323D8"/>
</svg>
