<svg viewBox="0 0 323 101" fill="none" xmlns="http://www.w3.org/2000/svg">
<path d="M56.1559 86.3L45.5559 73.6C42.6225 74.3333 39.6225 74.7 36.5559 74.7C30.0225 74.7 24.0225 73.1667 18.5559 70.1C13.0892 67.0333 8.75586 62.8 5.55586 57.4C2.35586 51.9333 0.755859 45.7667 0.755859 38.9C0.755859 32.1 2.35586 26 5.55586 20.6C8.75586 15.1333 13.0892 10.8667 18.5559 7.79999C24.0225 4.73333 30.0225 3.2 36.5559 3.2C43.1559 3.2 49.1559 4.73333 54.5559 7.79999C60.0225 10.8667 64.3225 15.1333 67.4559 20.6C70.6559 26 72.2559 32.1 72.2559 38.9C72.2559 45.1 70.9225 50.7667 68.2559 55.9C65.6559 60.9667 62.0892 65.1 57.5559 68.3L73.5559 86.3H56.1559ZM15.1559 38.9C15.1559 43.5667 16.0559 47.6667 17.8559 51.2C19.6559 54.7333 22.1559 57.4667 25.3559 59.4C28.6225 61.2667 32.3559 62.2 36.5559 62.2C40.7559 62.2 44.4559 61.2667 47.6559 59.4C50.8559 57.4667 53.3559 54.7333 55.1559 51.2C56.9559 47.6667 57.8559 43.5667 57.8559 38.9C57.8559 34.2333 56.9559 30.1667 55.1559 26.7C53.3559 23.1667 50.8559 20.4667 47.6559 18.6C44.4559 16.7333 40.7559 15.8 36.5559 15.8C32.3559 15.8 28.6225 16.7333 25.3559 18.6C22.1559 20.4667 19.6559 23.1667 17.8559 26.7C16.0559 30.1667 15.1559 34.2333 15.1559 38.9ZM135.167 18.6V74H121.067V67C119.267 69.4 116.9 71.3 113.967 72.7C111.1 74.0333 107.967 74.7 104.567 74.7C100.233 74.7 96.4001 73.8 93.0668 72C89.7335 70.1333 87.1001 67.4333 85.1668 63.9C83.3001 60.3 82.3668 56.0333 82.3668 51.1V18.6H96.3668V49.1C96.3668 53.5 97.4668 56.9 99.6668 59.3C101.867 61.6333 104.867 62.8 108.667 62.8C112.533 62.8 115.567 61.6333 117.767 59.3C119.967 56.9 121.067 53.5 121.067 49.1V18.6H135.167ZM243.499 74L224.699 50.4V74H210.699V-9.53674e-07H224.699V42.1L243.299 18.6H261.499L237.099 46.4L261.699 74H243.499ZM322.097 18.6L287.797 100.2H272.897L284.897 72.6L262.697 18.6H278.397L292.697 57.3L307.197 18.6H322.097Z" fill="white"/>
<path d="M200.48 45.1C200.48 47.1 200.347 48.9 200.08 50.5H159.58C159.913 54.5 161.313 57.6333 163.78 59.9C166.247 62.1667 169.28 63.3 172.88 63.3C178.08 63.3 181.78 61.0667 183.98 56.6H199.08C197.48 61.9333 194.413 66.3333 189.88 69.8C185.347 73.2 179.78 74.9 173.18 74.9C167.847 74.9 163.047 73.7333 158.78 71.4C154.58 69 151.28 65.6333 148.88 61.3C146.547 56.9667 145.38 51.9667 145.38 46.3C145.38 40.5667 146.547 35.5333 148.88 31.2C151.213 26.8667 154.48 23.5333 158.68 21.2C162.88 18.8667 167.713 17.7 173.18 17.7C178.447 17.7 183.147 18.8333 187.28 21.1C191.48 23.3667 194.713 26.6 196.98 30.8C199.313 34.9333 200.48 39.7 200.48 45.1ZM185.98 41.1C185.913 37.5 184.613 34.6333 182.08 32.5C179.547 30.3 176.447 29.2 172.78 29.2C169.313 29.2 166.38 30.2667 163.98 32.4C161.647 34.4667 160.213 37.3667 159.68 41.1H185.98Z" fill="#602FB0"/>
</svg>
